# xmcd CD database file
#
# Track frame offsets:
#	150
#	36116
#	58417
#	71773
#	93236
#	123389
#	141335
#	157248
#	176672
#	201334
#	229762
#	259601
#	278577
#	314770
#
# Disc length: 4359 seconds
#
# Revision: 0
# Processed by: cddbd v1.5.1PL0 Copyright (c) Steve Scherf et al.
# Submitted via: CDex 1.51
#
DISCID=d911050e
DTITLE=Various Artist - Vol. 5 Number 4 Red
DYEAR=2005
DGENRE=Jazz
TTITLE0=Rez Abbasi/Snake Charmer
TTITLE1=Avi Rothbard/Minor Impact
TTITLE2=Priscilla Wright/They All Laughed
TTITLE3=Babtunde Lea/Motivation
TTITLE4=Carla White/Lotus Blossom
TTITLE5=Matthew Von Doran/Critical Mass
TTITLE6=Bob Stewart/It's the Talk of the Town
TTITLE7=Mark Elf/Elfin's Place
TTITLE8=Jim Pearce/Debbie's Blue Bicycle
TTITLE9=Christopher Woitach/Verity, Mom and Two Dads
TTITLE10=Carrie Landsgaard/Is This Desire
TTITLE11=Joe Bourne/When I Fall in Love
TTITLE12=Joe Beck/Blues for Joe Farrell
TTITLE13=Data
EXTD=YEAR: 2005
EXTT0=
EXTT1=
EXTT2=
EXTT3=
EXTT4=
EXTT5=
EXTT6=
EXTT7=
EXTT8=
EXTT9=
EXTT10=
EXTT11=
EXTT12=
EXTT13=
PLAYORDER=
